<svg width="217" height="40" viewBox="0 0 217 40" fill="none" xmlns="http://www.w3.org/2000/svg">
<mask id="mask0_391_5064" style="mask-type:luminance" maskUnits="userSpaceOnUse" x="0" y="0" width="217" height="40">
<path d="M217 0H0V40H217V0Z" fill="white"/>
</mask>
<g mask="url(#mask0_391_5064)">
<path d="M183.358 16.1968C183.959 15.3188 184.653 14.5822 185.517 14.0184C187.653 12.6254 191.087 12.6516 192.924 14.343C193.445 14.8248 193.838 15.3956 194.163 16.0292C194.234 16.1654 194.257 16.333 194.412 16.4464C195.131 15.3188 196.064 14.4373 197.237 13.8525C199.033 12.9571 200.916 12.7389 202.821 13.3323C204.942 13.9922 206.129 15.5981 206.663 17.7783C206.888 18.6982 206.992 19.6338 206.992 20.5817C206.992 24.5511 206.985 28.5204 207 32.4898C207 32.8983 206.888 33.0048 206.507 32.9961C205.361 32.9716 204.215 32.9716 203.069 32.9961C202.709 33.003 202.633 32.8826 202.635 32.5283C202.647 28.6461 202.642 24.764 202.643 20.8819C202.643 20.4298 202.591 19.9847 202.519 19.5396C202.263 17.9389 201.335 16.9544 199.679 16.8078C198.084 16.6664 196.473 17.4396 195.713 18.8693C195.319 19.6076 195.172 20.4158 195.173 21.2607C195.178 24.9979 195.168 28.7352 195.185 32.4706C195.187 32.8913 195.083 33.0083 194.678 32.9978C193.548 32.9681 192.414 32.9716 191.283 32.9978C190.919 33.0065 190.813 32.914 190.815 32.5213C190.83 28.6391 190.822 24.757 190.827 20.8749C190.827 20.4507 190.793 20.0301 190.719 19.6181C190.391 17.7608 189.515 16.9107 187.68 16.8147C186.165 16.7344 184.878 17.286 184.023 18.6668C183.548 19.4313 183.36 20.2919 183.36 21.1961C183.36 24.9613 183.353 28.7282 183.368 32.4933C183.368 32.8913 183.276 33.0083 182.887 32.9996C181.728 32.9716 180.567 32.9804 179.408 32.9961C179.109 32.9996 179 32.935 179 32.5928C179.01 26.3263 179.01 20.0597 179 13.7932C179 13.479 179.097 13.4057 179.382 13.4092C180.584 13.4231 181.786 13.4249 182.988 13.4092C183.279 13.4057 183.373 13.4912 183.365 13.8002C183.345 14.5996 183.358 15.3991 183.358 16.1986V16.1968Z" fill="#14A9F9"/>
<path d="M71.0461 7.00894C71.988 7.00894 72.9316 7.02419 73.8735 7.00046C74.1938 6.99198 74.3209 7.10049 74.4167 7.38701C76.2952 12.9615 78.1842 18.531 80.0715 24.1021C81.0238 26.9148 81.9744 29.7275 82.9372 32.5368C83.0538 32.8742 83.0399 33.003 82.6168 32.9962C81.1962 32.9742 79.7738 32.9776 78.3531 32.9962C78.038 32.9996 77.897 32.903 77.8012 32.6097C77.1884 30.7125 76.5477 28.8255 75.9349 26.9284C75.8461 26.652 75.7312 26.5537 75.4247 26.5537C72.2927 26.5655 69.1588 26.5672 66.0268 26.5537C65.6925 26.5537 65.588 26.6774 65.4992 26.9589C64.9177 28.8204 64.3084 30.6735 63.7321 32.5351C63.6276 32.8708 63.4918 33.0081 63.1088 32.9996C61.8762 32.9725 60.6436 32.9776 59.4109 32.9979C59.0227 33.0047 58.9182 32.9589 59.061 32.5487C60.6349 28.0049 62.1896 23.4561 63.7443 18.9073C65.0431 15.1079 66.3401 11.3068 67.6163 7.5006C67.7504 7.10218 67.9366 6.98859 68.3458 7.00215C69.2441 7.03267 70.1443 7.01233 71.0426 7.01233L71.0461 7.00894ZM70.7867 11.1169C70.7553 11.1186 70.7258 11.1203 70.6944 11.1237C69.4287 14.9876 68.1682 18.8548 66.8938 22.7153C66.7615 23.1171 67.0296 23.0204 67.2228 23.0204C69.5419 23.0238 71.8591 23.0153 74.1782 23.0289C74.5577 23.0306 74.643 22.9628 74.5177 22.5847C73.5566 19.6754 72.6182 16.7576 71.6729 13.8431C71.3786 12.9344 71.0827 12.0257 70.7867 11.1169Z" fill="#14A9F9"/>
<path d="M126.796 23.9776C124.558 23.9776 122.319 23.9845 120.081 23.9691C119.742 23.9674 119.655 24.0649 119.688 24.3816C119.866 26.0402 120.297 27.5807 121.717 28.6677C122.448 29.2274 123.295 29.4995 124.209 29.592C125.29 29.6998 126.355 29.6536 127.39 29.2856C128.468 28.9022 129.165 28.1644 129.444 27.0809C129.525 26.7728 129.654 26.7112 129.945 26.7146C131.137 26.73 132.33 26.7283 133.522 26.7146C133.822 26.7112 133.922 26.754 133.85 27.0878C133.356 29.4037 132.033 31.0965 129.827 32.0208C126.948 33.2259 123.97 33.3251 121.025 32.2827C117.786 31.1359 115.906 28.7738 115.261 25.4925C114.806 23.1714 114.909 20.8504 115.864 18.6509C117.243 15.4706 119.735 13.6374 123.214 13.1239C124.859 12.8808 126.494 12.9887 128.079 13.5073C131.15 14.5138 132.927 16.6534 133.658 19.7002C133.974 21.0164 134.009 22.3498 133.998 23.6918C133.997 24.0136 133.806 23.9776 133.6 23.9776C131.333 23.9776 129.065 23.9776 126.798 23.9776H126.796ZM124.623 20.9959H128.502C129.554 20.9959 129.563 20.9942 129.367 19.9723C129.147 18.8238 128.727 17.7352 127.702 17.071C126.094 16.0269 124.338 15.955 122.595 16.7133C120.842 17.475 120.151 19.0121 119.784 20.7374C119.716 21.0575 119.955 20.9959 120.132 20.9959C121.628 20.9976 123.125 20.9959 124.621 20.9959H124.623Z" fill="#14A9F9"/>
<path d="M172.327 29.92C171.334 31.3338 170.019 32.2957 168.282 32.6911C165.927 33.2277 163.632 33.1497 161.585 31.7774C160.158 30.8221 159.493 29.4315 159.191 27.8698C159.068 27.2418 159.009 26.6105 159.009 25.9726C159.014 22.1531 159.022 18.3336 159 14.5141C158.998 14.0755 159.137 13.9908 159.576 14.0008C160.788 14.029 162.004 14.024 163.216 14.0008C163.592 13.9941 163.689 14.0938 163.688 14.4377C163.675 18.1193 163.682 21.7992 163.677 25.4808C163.677 26.1221 163.75 26.7534 163.952 27.3648C164.29 28.3948 165.01 29.0843 166.152 29.3568C167.283 29.6276 168.415 29.6126 169.506 29.2189C171.348 28.5543 172.221 27.2236 172.309 25.4625C172.379 24.067 172.327 22.6681 172.327 21.2692C172.327 18.9998 172.338 16.7304 172.318 14.461C172.314 14.0855 172.438 13.9958 172.825 14.0024C174.068 14.024 175.313 14.019 176.556 14.0057C176.865 14.0024 177.002 14.0473 177 14.3829C176.989 20.3472 176.989 26.3115 176.998 32.2774C176.998 32.5682 176.908 32.6529 176.595 32.6496C175.307 32.6346 174.018 32.6346 172.73 32.6496C172.42 32.6529 172.312 32.5765 172.321 32.2791C172.343 31.4933 172.329 30.7074 172.329 29.9216L172.327 29.92Z" fill="#14A9F9"/>
<path d="M137.175 26.6524C137.772 26.6524 138.368 26.6593 138.965 26.649C139.179 26.6456 139.254 26.7106 139.299 26.928C139.689 28.8092 140.62 29.5658 142.61 29.6839C143.489 29.7353 144.352 29.7062 145.189 29.4135C146.094 29.0968 146.565 28.4652 146.644 27.5289C146.726 26.5669 146.349 25.8702 145.463 25.4388C144.485 24.9647 143.421 24.7986 142.362 24.612C141.088 24.3861 139.821 24.1499 138.612 23.6689C136.14 22.6863 135.324 21.0379 135.414 18.5884C135.501 16.1971 136.869 14.6309 139.046 13.7596C141.637 12.7223 144.287 12.7633 146.871 13.7853C148.999 14.6274 150.018 16.346 150.369 18.4977C150.409 18.7476 150.346 18.8572 150.058 18.8537C148.878 18.84 147.699 18.8435 146.522 18.8537C146.286 18.8554 146.205 18.7613 146.139 18.5508C145.634 16.9725 144.809 16.37 143.111 16.2998C142.348 16.269 141.602 16.3118 140.894 16.6387C139.898 17.0975 139.409 18.1416 139.72 19.167C139.935 19.8774 140.519 20.194 141.162 20.4183C142.026 20.7195 142.93 20.8753 143.833 21.0259C145.152 21.245 146.464 21.483 147.717 21.9708C149.897 22.8198 150.973 24.3741 150.999 26.6764C151.019 28.4874 150.531 30.0862 149.076 31.2964C148.071 32.1317 146.882 32.5802 145.599 32.7822C143.296 33.1451 141.011 33.1143 138.82 32.2276C136.505 31.2896 135.305 29.523 135.01 27.118C134.961 26.7278 135.089 26.6268 135.473 26.6473C136.039 26.6798 136.609 26.6559 137.175 26.6559V26.6524Z" fill="#14A9F9"/>
<path d="M111.816 20.2007C111.248 20.2007 110.681 20.1871 110.115 20.2076C109.841 20.2178 109.73 20.1272 109.68 19.8451C109.554 19.1372 109.3 18.4824 108.84 17.9215C108.174 17.1111 107.292 16.7469 106.304 16.6289C105.688 16.5554 105.06 16.5383 104.449 16.6785C102.23 17.1863 101.094 18.7542 100.641 20.9223C100.284 22.6321 100.322 24.3573 100.839 26.0295C101.641 28.6285 103.647 29.6834 106.045 29.4919C107.096 29.4082 108.033 29.0508 108.808 28.2831C109.494 27.6026 109.873 26.7648 110.009 25.8107C110.054 25.5029 110.155 25.4157 110.452 25.4208C111.49 25.4396 112.528 25.4482 113.564 25.4174C113.949 25.4054 114.039 25.5251 113.986 25.8962C113.601 28.5635 112.367 30.6957 109.977 31.8532C106.463 33.5562 102.959 33.392 99.6812 31.1624C97.6436 29.7775 96.5708 27.6881 96.1872 25.2379C95.8251 22.933 95.9497 20.6504 96.9029 18.5012C98.2729 15.4132 100.656 13.6299 103.899 13.1374C106.03 12.8143 108.126 13.0383 110.083 14.0522C112.415 15.2576 113.533 17.3145 113.895 19.8913C113.931 20.1494 113.833 20.2093 113.602 20.2042C113.008 20.1922 112.413 20.2007 111.817 20.2007H111.816Z" fill="#14A9F9"/>
<path d="M88.5751 16.8979C88.8517 16.4657 89.056 16.1336 89.2727 15.8103C90.5675 13.881 92.4508 13.0886 94.7057 13.0007C94.9559 12.9902 94.9982 13.0921 94.9964 13.3065C94.9894 14.5206 94.9841 15.7347 94.9999 16.9489C95.0035 17.2528 94.852 17.2757 94.6212 17.2774C93.7227 17.2792 92.8401 17.3846 91.9734 17.6306C89.9809 18.1946 88.9221 19.5353 88.6544 21.5506C88.5962 21.9864 88.5733 22.4221 88.5733 22.8631C88.5769 26.0821 88.568 29.301 88.5857 32.5199C88.5874 32.917 88.4747 33.0067 88.0941 32.9996C86.8627 32.975 85.6296 32.9821 84.3981 32.9961C84.0934 32.9996 84 32.9135 84 32.6025C84.0088 26.2964 84.0088 19.9903 84 13.6842C84 13.3926 84.0599 13.2731 84.384 13.2766C85.6595 13.2942 86.9367 13.2924 88.2122 13.2766C88.5029 13.2731 88.5857 13.3645 88.5804 13.6509C88.5645 14.6893 88.5733 15.7277 88.5733 16.8961L88.5751 16.8979Z" fill="#14A9F9"/>
<path d="M153.011 23.5069C153.011 20.5046 153.015 17.504 153.005 14.5016C153.005 14.1344 153.065 13.9888 153.438 14.0007C154.5 14.0311 155.562 14.021 156.623 14.0057C156.902 14.0024 157.002 14.0785 157 14.4052C156.992 20.4657 156.991 26.5245 157 32.585C157 32.9472 156.874 32.9997 156.594 32.9963C155.532 32.9828 154.469 32.9777 153.407 32.9997C153.089 33.0064 153 32.9083 153 32.5563C153.012 29.5404 153.008 26.5245 153.008 23.5086L153.011 23.5069Z" fill="#14A9F9"/>
<path d="M152 8.07241C152.005 6.32682 153.077 5.00404 154.494 5.00001C155.929 4.99598 157.005 6.32883 157 8.10463C156.995 9.67304 155.829 11.016 154.488 10.9999C153.127 10.9837 151.997 9.65291 152 8.07241Z" fill="#14A9F9"/>
<path d="M214.999 9.54939C214.95 11.5351 213.391 13.0519 211.449 12.9986C209.466 12.9454 207.964 11.396 208.001 9.44117C208.038 7.53102 209.644 5.96786 211.54 6.0005C213.5 6.03314 215.046 7.61863 214.999 9.54767V9.54939ZM208.667 9.50988C208.662 11.1744 209.871 12.4026 211.515 12.4009C213.143 12.4009 214.357 11.1572 214.356 9.49442C214.356 7.80758 213.174 6.62061 211.505 6.62577C209.833 6.63092 208.673 7.81102 208.667 9.50988Z" fill="#14A9F9"/>
<path d="M210.004 9.47191C210.004 9.06726 210.013 8.66408 210 8.25943C209.995 8.07403 210.064 7.9931 210.306 8.00046C210.803 8.01664 211.301 8.00046 211.797 8.024C212.309 8.04754 212.693 8.25502 212.844 8.66261C212.985 9.04813 212.869 9.39687 212.436 9.62642C212.231 9.73383 212.284 9.82948 212.378 9.95749C212.566 10.2091 212.742 10.4651 212.93 10.7153C213.057 10.883 213.016 10.939 212.766 10.9581C212.295 10.9949 211.914 10.9448 211.728 10.5225C211.643 10.3298 211.483 10.1591 211.355 9.97809C211.306 9.91041 211.235 9.86626 211.132 9.88098C211.011 9.89864 211.02 9.98104 211.018 10.0531C211.014 10.187 211.018 10.3224 211.018 10.4578C211.018 10.9257 210.71 11.0949 210.151 10.9493C209.957 10.8992 210.009 10.7815 210.008 10.6814C210.002 10.2768 210.006 9.87362 210.006 9.46897L210.004 9.47191ZM211.02 8.99369C211.052 9.12612 210.9 9.3645 211.301 9.34537C211.612 9.33065 211.887 9.27474 211.887 8.97309C211.887 8.6891 211.619 8.64054 211.328 8.61847C210.953 8.58904 211.02 8.79504 211.02 8.99369Z" fill="#14A9F9"/>
<path d="M3.49316 37.7212L35.0048 3.67009C36.5259 2.02659 39.2724 3.14006 39.219 5.38L38.4897 35.8654C38.4494 37.548 36.3618 38.302 35.2561 37.0336L23.9249 24.9652" stroke="white" stroke-width="5" stroke-miterlimit="10" stroke-linecap="round"/>
<path d="M2.2793 2.2793L15.0939 15.7633" stroke="#14A9F9" stroke-width="5" stroke-miterlimit="10" stroke-linecap="round"/>
</g>
</svg>
