<svg width="214" height="40" viewBox="0 0 214 40" fill="none" xmlns="http://www.w3.org/2000/svg">
<path fill-rule="evenodd" clip-rule="evenodd" d="M24.9568 4.62928C27.9698 7.6156 29.5902 11.5629 29.5266 15.7427V15.7375C29.3944 24.154 22.1449 30.9998 13.3705 30.9998H1.04292C0.809925 30.9998 0.693427 30.726 0.857584 30.5604L6.85722 24.6758C6.95784 24.5777 7.09021 24.5207 7.23319 24.5207H13.487C18.5176 24.5207 22.7327 20.5941 22.881 15.7737C22.9551 13.3144 22.0284 10.9894 20.2704 9.22241C18.5123 7.45543 16.1559 6.48411 13.6406 6.48411H7.27556V16.5177C7.27556 16.6055 7.20672 16.6727 7.1167 16.6727H0.788744C0.698722 16.6727 0.629883 16.6055 0.629883 16.5177V0.154992C0.629883 0.0671598 0.698722 0 0.788744 0H13.6406C17.9245 0 21.9437 1.64298 24.9568 4.62928ZM43.0244 8.31302C35.272 8.31302 31.7348 14.1099 31.7348 19.7726L31.7295 19.7777C31.7295 25.3991 35.7222 31.3251 43.4746 31.3251C49.0242 31.3251 53.3345 28.3078 54.3196 23.5958C54.3407 23.4977 54.2614 23.4046 54.1607 23.4046H48.3093C48.2405 23.4046 48.1823 23.4513 48.161 23.5185C47.6263 25.3474 45.9635 26.2824 43.4746 26.2824C40.3028 26.2824 38.2639 24.3346 37.8086 21.1934H54.076C54.1607 21.1934 54.2295 21.1366 54.2347 21.0539C54.277 20.5786 54.3142 19.9637 54.3142 19.1991C54.3142 14.11 50.7769 8.31302 43.0244 8.31302ZM43.0244 12.8235C46.0641 12.8235 47.8327 14.8126 48.0128 17.2926H37.8986C38.4441 14.1926 40.1703 12.8235 43.0244 12.8235ZM57.0785 19.7726C57.0785 14.1099 60.6156 8.31302 68.3681 8.31302C76.1205 8.31302 79.6579 14.11 79.6579 19.1991C79.6579 19.9637 79.6207 20.5786 79.5783 21.0539C79.5732 21.1366 79.5044 21.1934 79.4194 21.1934H63.1522C63.6076 24.3346 65.6464 26.2824 68.8183 26.2824C71.3071 26.2824 72.9699 25.3474 73.5046 23.5185C73.5259 23.4513 73.5842 23.4046 73.653 23.4046H79.5044C79.605 23.4046 79.6843 23.4977 79.663 23.5958C78.6781 28.3078 74.3678 31.3251 68.8183 31.3251C61.0658 31.3251 57.0731 25.3991 57.0731 19.7777L57.0785 19.7726ZM73.3563 17.2926C73.1763 14.8126 71.4077 12.8235 68.3681 12.8235C65.514 12.8235 63.7877 14.1926 63.2423 17.2926H73.3563ZM89.3113 8.6695H83.3275V8.65916C83.2374 8.65916 83.1686 8.72634 83.1686 8.81417V39.8294C83.1686 39.9171 83.2374 39.9843 83.3275 39.9843H89.3113C89.4012 39.9843 89.4702 39.9171 89.4702 39.8294V28.9691C90.6933 30.4727 92.9173 31.3147 95.5016 31.3147C102.078 31.3147 106.521 26.7578 106.521 19.8139C106.521 12.87 102.439 8.31302 95.9993 8.31302C93.0497 8.31302 90.8309 9.37733 89.4702 11.103V8.82451C89.4702 8.73666 89.4012 8.6695 89.3113 8.6695ZM100.262 19.8191C100.262 23.5339 98.0433 26.0139 94.6861 26.0139C91.334 26.0139 89.1101 23.5752 89.1101 19.8191C89.1101 16.0629 91.334 13.583 94.6861 13.583C98.0379 13.583 100.262 16.1043 100.262 19.8191ZM115.735 35.3191C115.836 35.2208 115.968 35.1693 116.111 35.1693H122.54C124.488 35.1693 125.849 33.6656 125.849 31.6301V28.7109C124.668 30.3487 122.264 31.32 119.59 31.32C112.833 31.32 108.798 26.7631 108.798 19.8192C108.798 12.8752 112.833 8.3183 119.5 8.3183C122.312 8.3183 124.531 9.33613 125.849 10.8861V8.82979C125.849 8.74197 125.918 8.67478 126.008 8.67478H131.992C132.082 8.67478 132.151 8.74197 132.151 8.82979V32.3017C132.151 36.9052 128.751 40 123.583 40H111.599C111.361 40 111.245 39.7211 111.414 39.5609L115.735 35.3293V35.3191ZM120.591 26.0088C124.038 26.0088 126.215 23.5752 126.215 19.814C126.215 16.0527 124.038 13.5779 120.591 13.5779C117.144 13.5779 115.015 16.0579 115.015 19.814C115.015 23.5702 117.239 26.0088 120.591 26.0088ZM143.096 30.8086V20.124H143.101C143.101 16.3162 144.505 13.7949 147.634 13.7949H151.24C151.331 13.7949 151.399 13.7277 151.399 13.6399V8.81945C151.399 8.7316 151.331 8.66444 151.24 8.66444H148.858C146.046 8.66444 144.319 9.58926 143.096 12.3792V8.81945C143.096 8.7316 143.027 8.66444 142.937 8.66444H136.954C136.863 8.66444 136.795 8.7316 136.795 8.81945V30.8086C136.795 30.8964 136.863 30.9635 136.954 30.9635H142.937C143.027 30.9635 143.096 30.8964 143.096 30.8086ZM153.417 24.6396C153.417 20.2584 156.774 17.6027 161.805 17.6027H165.612C166.745 17.6027 167.333 16.8949 167.333 15.9649C167.333 14.1049 165.882 12.8236 163.298 12.8236C160.714 12.8236 159.157 14.4201 159.041 16.2181C159.041 16.3007 158.972 16.3627 158.887 16.3627H153.586C153.491 16.3627 153.417 16.2852 153.422 16.1922C153.735 11.8006 157.436 8.30796 163.616 8.30796C169.419 8.30796 173.635 11.5836 173.635 16.6262V30.8033C173.635 30.8913 173.566 30.9585 173.476 30.9585H167.492C167.402 30.9585 167.333 30.8913 167.333 30.8033V27.8636C166.56 29.9406 164.023 31.3149 160.894 31.3149C156.494 31.3149 153.412 28.4371 153.412 24.6345L153.417 24.6396ZM162.53 26.851C165.57 26.851 167.338 24.6396 167.338 21.8083V21.4983H162.758C160.809 21.4983 159.491 22.6506 159.491 24.3761C159.491 25.8382 160.761 26.8561 162.53 26.8561V26.851ZM183.622 8.6695H177.638L177.648 8.66433C177.558 8.66433 177.489 8.73151 177.489 8.81934V30.8084C177.489 30.8964 177.558 30.9635 177.648 30.9635H183.632C183.722 30.9635 183.791 30.8964 183.791 30.8084V18.3104C183.791 15.4326 185.464 13.5313 188.096 13.5313C190.543 13.5313 192.131 15.4326 192.131 18.3104V30.8084C192.131 30.8964 192.2 30.9635 192.29 30.9635H198.274C198.364 30.9635 198.433 30.8964 198.433 30.8084V18.3104C198.433 15.4326 200.106 13.5313 202.738 13.5313C205.184 13.5313 206.773 15.4326 206.773 18.3104V30.8084C206.773 30.8964 206.842 30.9635 206.932 30.9635H212.915C213.006 30.9635 213.074 30.8964 213.074 30.8084V16.3626C213.074 11.8986 209.855 8.31302 204.914 8.31302C201.244 8.31302 198.385 10.2143 197.252 12.3843C196.161 9.72866 193.847 8.31302 190.267 8.31302C187.18 8.31302 185.004 9.77516 183.78 11.8108V8.82451C183.78 8.73666 183.712 8.6695 183.622 8.6695Z" fill="white"/>
</svg>
