<svg width="266" height="40" viewBox="0 0 266 40" fill="none" xmlns="http://www.w3.org/2000/svg">
<path d="M65.9481 0C74.7145 0 81.821 7.10658 81.821 15.873C81.821 24.6394 74.7145 31.7459 65.9481 31.7459C57.1817 31.7459 50.0752 24.6394 50.0752 15.873C50.0752 12.261 51.3074 8.75715 53.5678 5.93996C54.4876 6.99734 54.8204 7.62347 55.7895 9.20633H56.345C55.854 7.99422 55.1325 6.81508 54.1603 5.24428C57.1698 1.90612 61.4536 0.000345073 65.9481 0ZM65.9481 6.98412C61.0389 6.98412 57.0593 10.9638 57.0593 15.873C57.0593 20.7822 61.0389 24.7618 65.9481 24.7618C70.8573 24.7618 74.8371 20.7822 74.8371 15.873C74.8371 10.9638 70.8573 6.98412 65.9481 6.98412Z" fill="#13BF95"/>
<path d="M41.1854 0C32.419 0 25.3125 7.1066 25.3125 15.873C25.3138 19.4829 26.5456 22.9844 28.8045 25.8001C28.8112 25.7918 28.8157 25.7853 28.8222 25.7773C28.8242 25.7797 28.8262 25.7822 28.828 25.7847C28.9806 25.5931 29.1271 25.3968 29.2705 25.1983C29.9367 24.326 30.3974 23.5946 30.8462 22.4877C30.8866 22.3991 30.9276 22.3113 30.9663 22.2221H31.503C31.388 22.6965 31.2267 23.1612 31.0277 23.6324C30.5841 24.5841 30.0324 25.5973 29.472 26.5069C29.463 26.5217 29.4561 26.5344 29.4469 26.5492C32.4535 29.857 36.7154 31.7439 41.1854 31.7459C45.6555 31.7439 49.9176 29.857 52.924 26.5492C52.915 26.5344 52.908 26.5217 52.8989 26.5069C52.3385 25.5973 51.787 24.5841 51.3433 23.6324C51.1441 23.1612 50.9828 22.6965 50.8681 22.2221H51.4045C51.4433 22.3113 51.4843 22.3991 51.5246 22.4877C51.9734 23.5946 52.4341 24.326 53.1005 25.1983C53.2439 25.3968 53.3905 25.5931 53.5428 25.7847C53.5449 25.7822 53.5467 25.7797 53.5487 25.7773C53.5552 25.7853 53.5599 25.7918 53.5664 25.8001C55.8253 22.9844 57.0572 19.4829 57.0583 15.873C57.0583 7.1066 49.9518 0 41.1854 0ZM41.1854 6.98412C46.0946 6.98412 50.0744 10.9638 50.0744 15.873C50.0744 20.7822 46.0946 24.7618 41.1854 24.7618C36.2762 24.7618 32.2966 20.7822 32.2966 15.873C32.2966 15.7196 32.3005 15.5672 32.3081 15.4157C32.546 10.7191 36.4297 6.98412 41.1854 6.98412Z" fill="#13BF95"/>
<path d="M16.4238 0C7.65736 0 0.550781 7.10658 0.550781 15.873C0.550781 24.6394 7.65736 31.7459 16.4238 31.7459C25.1901 31.7459 32.2968 24.6394 32.2968 15.873C32.2966 12.261 31.0644 8.75715 28.804 5.93996C27.8844 6.99734 27.5516 7.62347 26.5825 9.20633H26.0268C26.5178 7.99422 27.2395 6.81508 28.2115 5.24428C25.202 1.90612 20.9183 0.000345073 16.4238 0ZM16.4238 6.98412C21.3329 6.98412 25.3127 10.9638 25.3127 15.873C25.3127 20.7822 21.3329 24.7618 16.4238 24.7618C11.5146 24.7618 7.53491 20.7822 7.53491 15.873C7.53491 10.9638 11.5146 6.98412 16.4238 6.98412Z" fill="#13BF95"/>
<path d="M105.241 30.8694C103.61 30.8694 102.103 30.6619 100.721 30.2471C99.338 29.8044 98.0938 29.1682 96.9877 28.3383C95.8817 27.4807 94.9003 26.4296 94.043 25.1849L97.3196 21.4505C98.6743 23.3591 99.9879 24.687 101.26 25.4338C102.532 26.1531 104.011 26.5127 105.698 26.5127C106.693 26.5127 107.592 26.3606 108.394 26.0563C109.196 25.752 109.832 25.3233 110.302 24.7701C110.772 24.2169 111.007 23.5944 111.007 22.9027C111.007 22.4048 110.924 21.9483 110.758 21.5334C110.592 21.0908 110.329 20.7036 109.97 20.3716C109.61 20.0397 109.168 19.7354 108.643 19.4588C108.117 19.1545 107.509 18.8917 106.818 18.6704C106.126 18.4491 105.338 18.2693 104.454 18.131C102.96 17.799 101.647 17.3841 100.513 16.8862C99.4073 16.3883 98.4671 15.7658 97.6929 15.0189C96.9463 14.272 96.3933 13.4145 96.0339 12.4462C95.6744 11.4781 95.4947 10.3992 95.4947 9.20974C95.4947 8.02034 95.7574 6.92769 96.2828 5.93182C96.8083 4.90834 97.5271 4.02316 98.4395 3.2763C99.3519 2.5294 100.43 1.96231 101.675 1.57502C102.919 1.16011 104.246 0.952637 105.656 0.952637C107.233 0.952637 108.643 1.14628 109.887 1.53355C111.159 1.92081 112.279 2.5017 113.247 3.27623C114.215 4.02312 115.03 4.94977 115.694 6.0562L112.334 9.33413C111.754 8.44893 111.118 7.71587 110.427 7.13494C109.763 6.52635 109.016 6.06994 108.187 5.76565C107.357 5.46135 106.486 5.30921 105.574 5.30921C104.551 5.30921 103.652 5.4752 102.878 5.80714C102.131 6.11144 101.537 6.5402 101.094 7.09342C100.652 7.64668 100.431 8.29678 100.431 9.04373C100.431 9.59697 100.541 10.1087 100.762 10.579C101.011 11.0216 101.357 11.4227 101.799 11.7823C102.27 12.1419 102.878 12.46 103.624 12.7366C104.371 13.0133 105.242 13.2484 106.237 13.442C107.758 13.774 109.113 14.2027 110.302 14.7283C111.519 15.2262 112.542 15.8209 113.372 16.5124C114.229 17.204 114.865 17.9924 115.279 18.8776C115.722 19.7628 115.943 20.7173 115.943 21.7409C115.943 23.6217 115.501 25.2539 114.616 26.6371C113.759 27.9925 112.528 29.0436 110.924 29.7905C109.321 30.5097 107.426 30.8694 105.242 30.8694H105.241Z" fill="white"/>
<path d="M130.035 30.8691C127.768 30.8691 125.763 30.399 124.021 29.4583C122.279 28.4903 120.91 27.1761 119.915 25.5164C118.947 23.8289 118.463 21.9064 118.463 19.7487C118.463 18.0336 118.739 16.4707 119.292 15.0599C119.845 13.6491 120.606 12.432 121.573 11.4085C122.569 10.3573 123.744 9.55511 125.099 9.00185C126.482 8.42094 127.975 8.13049 129.579 8.13049C131.016 8.13049 132.344 8.40711 133.561 8.96035C134.805 9.48594 135.883 10.2328 136.795 11.201C137.708 12.1415 138.399 13.2618 138.869 14.5621C139.367 15.8623 139.602 17.2731 139.574 18.7944L139.533 20.6202H121.782L120.828 17.1762H135.511L134.889 17.8816V16.9272C134.806 16.042 134.516 15.2674 134.018 14.6034C133.52 13.9119 132.884 13.3724 132.11 12.9852C131.363 12.5702 130.534 12.3628 129.622 12.3628C128.184 12.3628 126.981 12.6394 126.013 13.1927C125.045 13.7182 124.299 14.5066 123.773 15.5579C123.276 16.609 123.027 17.8954 123.027 19.4169C123.027 20.883 123.331 22.1555 123.939 23.2342C124.575 24.3131 125.46 25.1568 126.593 25.7653C127.727 26.3464 129.041 26.6368 130.534 26.6368C131.585 26.6368 132.552 26.4707 133.437 26.1389C134.322 25.7792 135.29 25.1568 136.34 24.2715L138.663 27.5494C137.972 28.2134 137.142 28.7941 136.174 29.2923C135.207 29.7902 134.197 30.1774 133.147 30.4539C132.096 30.7306 131.059 30.8688 130.036 30.8688L130.035 30.8691Z" fill="white"/>
<path d="M143.29 30.4549V8.62974H147.977V13.1526L147.189 13.5675C147.438 12.8483 147.797 12.1706 148.267 11.5343C148.765 10.8981 149.36 10.331 150.051 9.83309C150.742 9.33515 151.489 8.94788 152.291 8.67126C153.092 8.39467 153.908 8.25635 154.738 8.25635C155.954 8.25635 157.019 8.46379 157.931 8.87873C158.872 9.266 159.646 9.86071 160.254 10.6629C160.89 11.465 161.36 12.4886 161.664 13.7335L160.918 13.609L161.208 12.9036C161.54 12.2674 161.969 11.6726 162.494 11.1195C163.047 10.5386 163.669 10.0406 164.36 9.62573C165.052 9.18314 165.784 8.8512 166.558 8.62988C167.333 8.38093 168.079 8.25644 168.798 8.25644C170.457 8.25644 171.826 8.58838 172.904 9.25229C173.983 9.91617 174.799 10.9258 175.352 12.2813C175.905 13.6368 176.181 15.3103 176.181 17.3021V30.4556H171.453V17.6341C171.453 16.4447 171.301 15.4765 170.996 14.7295C170.692 13.9826 170.236 13.4294 169.628 13.0699C169.019 12.6826 168.231 12.489 167.263 12.489C166.545 12.489 165.853 12.6135 165.19 12.8624C164.554 13.1114 164.001 13.4571 163.531 13.8997C163.061 14.3423 162.687 14.8679 162.411 15.4765C162.162 16.0574 162.038 16.7075 162.038 17.4268V30.4556H157.309V17.5512C157.309 16.4724 157.143 15.5596 156.812 14.8127C156.507 14.0381 156.051 13.4572 155.443 13.07C154.834 12.6827 154.088 12.4891 153.203 12.4891C152.484 12.4891 151.807 12.6136 151.171 12.8625C150.535 13.1115 149.982 13.4573 149.512 13.8998C149.042 14.3148 148.668 14.8265 148.392 15.4351C148.143 16.016 148.019 16.6522 148.019 17.3438V30.4556L143.29 30.4549Z" fill="white"/>
<path d="M190.886 39.9995C189.309 39.9995 187.733 39.7505 186.157 39.2526C184.581 38.7547 183.295 38.1186 182.3 37.344L184.042 33.7754C184.595 34.1904 185.231 34.55 185.949 34.8543C186.696 35.1861 187.47 35.4351 188.272 35.6011C189.102 35.7947 189.931 35.8915 190.761 35.8915C192.254 35.8915 193.498 35.6426 194.494 35.1447C195.489 34.6744 196.235 33.9553 196.733 32.9871C197.259 32.0466 197.521 30.8709 197.521 29.4602V25.3937L198.102 25.6426C197.964 26.5277 197.507 27.3577 196.733 28.1323C195.987 28.9069 195.046 29.5431 193.913 30.041C192.779 30.5113 191.618 30.7463 190.429 30.7463C188.383 30.7463 186.544 30.2623 184.912 29.2941C183.308 28.3259 182.037 26.998 181.096 25.3105C180.184 23.6233 179.728 21.6868 179.728 19.5015C179.728 17.3161 180.184 15.3798 181.096 13.6925C182.009 11.9773 183.267 10.6357 184.871 9.66757C186.474 8.67174 188.286 8.17383 190.304 8.17383C191.134 8.17383 191.936 8.28448 192.71 8.50575C193.484 8.69939 194.203 8.97601 194.867 9.33563C195.53 9.69524 196.111 10.0963 196.609 10.5389C197.134 10.9815 197.562 11.4518 197.894 11.9497C198.226 12.4476 198.433 12.9178 198.517 13.3604L197.562 13.6924L197.604 8.63002H202.208V29.0459C202.208 30.7885 201.945 32.3375 201.42 33.6931C200.922 35.0486 200.176 36.1965 199.18 37.1371C198.212 38.0776 197.023 38.783 195.613 39.2533C194.231 39.7512 192.654 40.0001 190.885 40.0001L190.886 39.9995ZM191.051 26.5972C192.351 26.5972 193.498 26.2929 194.494 25.6843C195.517 25.0757 196.305 24.246 196.858 23.1948C197.411 22.1435 197.688 20.9127 197.688 19.5018C197.688 18.1186 197.397 16.8876 196.817 15.8088C196.263 14.7299 195.489 13.8862 194.494 13.2777C193.498 12.6691 192.351 12.3648 191.051 12.3648C189.779 12.3648 188.646 12.6829 187.65 13.3192C186.655 13.9277 185.881 14.7714 185.328 15.8503C184.775 16.9291 184.498 18.1462 184.498 19.5016C184.498 20.8849 184.775 22.1157 185.328 23.1946C185.881 24.2457 186.655 25.0757 187.65 25.6843C188.646 26.2929 189.779 26.5972 191.051 26.5972Z" fill="white"/>
<path d="M206.553 30.4548V8.62968H211.198L211.281 15.5174L210.7 13.9406C211.005 12.8618 211.53 11.8936 212.276 11.0361C213.023 10.1509 213.88 9.45931 214.848 8.96133C215.816 8.43575 216.811 8.17297 217.834 8.17297C218.304 8.17297 218.761 8.21445 219.203 8.29745C219.646 8.38042 219.991 8.47724 220.24 8.58791L218.996 13.6917C218.664 13.5534 218.291 13.4427 217.876 13.3597C217.461 13.2491 217.046 13.1938 216.632 13.1938C215.913 13.1938 215.221 13.3321 214.558 13.6087C213.922 13.8853 213.355 14.2726 212.857 14.7705C212.387 15.2408 212 15.8079 211.696 16.4718C211.419 17.108 211.281 17.8134 211.281 18.588V30.4548H206.553Z" fill="white"/>
<path d="M231.378 30.8691C229.11 30.8691 227.105 30.399 225.364 29.4583C223.621 28.4903 222.253 27.1761 221.257 25.5164C220.29 23.8289 219.806 21.9064 219.806 19.7487C219.806 18.0336 220.082 16.4707 220.635 15.0599C221.188 13.6491 221.949 12.432 222.916 11.4085C223.912 10.3573 225.088 9.55511 226.441 9.00185C227.824 8.42094 229.318 8.13049 230.921 8.13049C232.359 8.13049 233.686 8.40711 234.902 8.96035C236.148 9.48594 237.226 10.2328 238.138 11.201C239.05 12.1415 239.742 13.2618 240.213 14.5621C240.71 15.8623 240.946 17.2731 240.917 18.7944L240.876 20.6202H223.125L222.171 17.1762H236.854L236.231 17.8816V16.9272C236.148 16.042 235.859 15.2674 235.36 14.6034C234.862 13.9119 234.228 13.3724 233.453 12.9852C232.706 12.5702 231.877 12.3628 230.963 12.3628C229.527 12.3628 228.324 12.6394 227.356 13.1927C226.388 13.7182 225.641 14.5066 225.117 15.5579C224.618 16.609 224.37 17.8954 224.37 19.4169C224.37 20.883 224.673 22.1555 225.283 23.2342C225.917 24.3131 226.802 25.1568 227.936 25.7653C229.07 26.3464 230.383 26.6368 231.877 26.6368C232.928 26.6368 233.894 26.4707 234.779 26.1389C235.664 25.7792 236.632 25.1568 237.683 24.2715L240.007 27.5494C239.314 28.2134 238.485 28.7941 237.517 29.2923C236.549 29.7902 235.541 30.1774 234.49 30.4539C233.439 30.7306 232.402 30.8688 231.38 30.8688L231.378 30.8691Z" fill="white"/>
<path d="M243.854 39.5835V8.62979H248.5L248.542 13.6091L247.794 13.2357C247.962 12.3782 248.43 11.5759 249.205 10.829C249.978 10.0545 250.92 9.43206 252.024 8.96173C253.158 8.49147 254.334 8.25635 255.551 8.25635C257.487 8.25635 259.201 8.74044 260.694 9.70861C262.215 10.6768 263.418 12.0046 264.303 13.6921C265.189 15.3795 265.63 17.3158 265.63 19.5011C265.63 21.6865 265.189 23.6366 264.303 25.3514C263.445 27.0389 262.255 28.3805 260.736 29.3765C259.242 30.3447 257.541 30.8287 255.634 30.8287C254.361 30.8287 253.131 30.5797 251.944 30.0818C250.781 29.584 249.786 28.9337 248.957 28.1315C248.128 27.3293 247.614 26.4857 247.422 25.6004L248.582 25.0196V39.5835H243.854ZM254.762 26.5964C255.979 26.5964 257.057 26.2921 257.998 25.6835C258.966 25.0749 259.726 24.245 260.279 23.1938C260.833 22.1149 261.108 20.8841 261.108 19.5008C261.108 18.1454 260.833 16.9421 260.279 15.8908C259.755 14.8397 259.006 14.0098 258.041 13.4012C257.099 12.7926 256.008 12.4883 254.762 12.4883C253.519 12.4883 252.412 12.7926 251.444 13.4012C250.505 13.9821 249.759 14.812 249.205 15.8908C248.652 16.942 248.376 18.1453 248.376 19.5008C248.376 20.8841 248.652 22.1149 249.205 23.1938C249.759 24.245 250.505 25.0749 251.444 25.6835C252.412 26.2921 253.519 26.5964 254.762 26.5964Z" fill="white"/>
</svg>
