<svg width="236" height="40" viewBox="0 0 236 40" fill="none" xmlns="http://www.w3.org/2000/svg">
<path d="M25.3758 30.2138C25.3758 36.8193 19.6266 40.0001 13.0817 40.0001C6.96619 40.0001 2.43628 37.4305 0.238281 32.7216L7.0886 28.8678C7.94492 31.3799 10.0245 32.8452 13.0817 32.8452C15.5938 32.8452 17.3019 31.9888 17.3019 30.215C17.2987 25.7477 1.52248 28.196 1.52248 17.431C1.52248 11.1928 6.84377 7.70654 13.1403 7.70654C18.0944 7.70654 22.3752 9.96949 24.7582 14.1896L18.0303 17.8592C17.1125 15.9017 15.4001 14.7399 13.1372 14.7399C11.18 14.7399 9.59005 15.5962 9.59005 17.252C9.59637 21.7704 25.3758 18.96 25.3758 30.2138Z" fill="white"/>
<path d="M81.2295 8.56258V39.1449H73.3398V35.5351C71.1418 38.2866 67.8355 40.0001 63.3705 40.0001C55.2357 40.0001 48.5078 32.9656 48.5078 23.8532C48.5078 14.7411 55.2357 7.70654 63.3705 7.70654C67.8355 7.70654 71.1378 9.41891 73.3398 12.1715V8.56258H81.2295ZM73.3398 23.8532C73.3398 18.7152 69.7309 15.2287 64.8378 15.2287C60.0064 15.2287 56.3975 18.7152 56.3975 23.8532C56.3975 28.9914 60.0024 32.4768 64.8378 32.4768C69.7361 32.4768 73.3398 28.9923 73.3398 23.8532Z" fill="white"/>
<path d="M102.811 7.95459V16.7612C98.7137 16.2724 93.5148 18.1072 93.5148 24.5294V39.145H85.6211V8.56264H93.5108V13.8221C95.1007 9.66379 98.9545 7.95459 102.811 7.95459Z" fill="white"/>
<path d="M142.06 16.1469V28.8679C142.06 32.1711 144.445 32.2318 148.968 31.9881V39.145C137.896 40.3686 134.166 37.1272 134.166 28.87V16.1469H128.846V8.56268H134.166V0H142.06V8.56268H148.968V16.1469H142.06Z" fill="white"/>
<path d="M169.447 7.95459V16.7612C165.349 16.2724 160.151 18.1072 160.151 24.5294V39.145H152.26V8.56264H160.151V13.8221C161.74 9.66379 165.593 7.95459 169.447 7.95459Z" fill="white"/>
<path d="M187.372 32.844C190.429 32.844 192.877 31.5598 194.222 29.7857L200.581 33.4552C197.708 37.6147 193.122 40.0001 187.248 40.0001C176.975 40.0001 170.492 32.9656 170.492 23.8532C170.492 14.7411 177.035 7.70654 186.639 7.70654C195.691 7.70654 202.113 14.8626 202.113 23.8532C202.107 24.9417 202.004 26.0276 201.806 27.098H178.748C179.846 31.1316 183.214 32.844 187.372 32.844ZM194.222 20.9782C193.242 16.5747 189.941 14.8028 186.639 14.8028C182.418 14.8028 179.544 17.0658 178.624 20.9782H194.222Z" fill="white"/>
<path d="M221.129 32.844C224.19 32.844 226.635 31.5598 227.98 29.7857L234.342 33.4552C231.469 37.6147 226.879 40.0001 221.009 40.0001C210.733 40.0001 204.25 32.9656 204.25 23.8532C204.25 14.7411 210.796 7.70654 220.397 7.70654C229.448 7.70654 235.871 14.8626 235.871 23.8532C235.865 24.9417 235.765 26.0276 235.566 27.098H212.509C213.609 31.1316 216.971 32.844 221.129 32.844ZM227.98 20.9782C227.003 16.5747 223.701 14.8028 220.397 14.8028C216.178 14.8028 213.302 17.0658 212.385 20.9782H227.98Z" fill="white"/>
<path d="M40.0684 16.1469V28.8679C40.0684 32.1711 42.4538 32.2318 46.9762 31.9881V39.145C35.9057 40.3686 32.1744 37.1272 32.1744 28.87V16.1469H26.8574V8.56268H32.1776V0H40.0684V8.56268H46.9762V16.1469H40.0684Z" fill="white"/>
<path d="M125.663 20.7178H116.528L116.522 8.28445C116.523 8.15888 116.482 8.03675 116.406 7.93647C116.33 7.83618 116.224 7.76377 116.103 7.72986C115.982 7.69595 115.853 7.70284 115.736 7.74911C115.619 7.79537 115.521 7.87871 115.456 7.98618L104.695 25.8989C104.642 25.986 104.613 26.086 104.611 26.188C104.61 26.2903 104.635 26.3909 104.685 26.4799C104.735 26.569 104.807 26.6434 104.896 26.6952C104.984 26.7469 105.084 26.7745 105.186 26.7748H114.324L114.332 39.2082C114.331 39.3337 114.372 39.4564 114.447 39.5567C114.523 39.657 114.63 39.73 114.751 39.7639C114.872 39.7978 115.001 39.7909 115.117 39.7444C115.234 39.6978 115.332 39.6142 115.397 39.5064L126.151 21.594C126.204 21.5066 126.233 21.4072 126.234 21.3052C126.236 21.2035 126.211 21.1029 126.161 21.0141C126.112 20.925 126.039 20.8509 125.952 20.7989C125.864 20.7469 125.765 20.719 125.663 20.7178Z" fill="#FAD32D"/>
</svg>
