<svg width="245" height="40" viewBox="0 0 245 40" fill="none" xmlns="http://www.w3.org/2000/svg">
<path d="M83.4199 9.22266H78.6621V13.9186H75.7363V18.4013H78.6621V27.7491C78.6621 30.5265 79.5437 32.7711 81.2005 34.2569C82.5509 35.4607 84.3265 36.0815 86.3897 36.0815C86.8147 36.0815 87.2523 36.0563 87.6963 35.9999L88.2465 35.9373V31.4921L87.5837 31.5297C86.1145 31.6049 85.0767 31.3417 84.4139 30.7083C83.7575 30.0815 83.4199 29.0407 83.4199 27.6049V18.2571H88.2465V13.7743H83.4199V9.22892V9.22266Z" fill="white"/>
<path d="M94.3786 15.6112C92.4718 17.3416 91.459 19.862 91.459 22.9026V35.9936H96.2168V22.7522C96.2168 21.1472 96.6794 19.9059 97.586 19.0532C98.6176 18.0877 100.237 17.6551 102.275 17.7993L102.944 17.8495V13.3855L102.381 13.3291C99.2052 13.0031 96.3606 13.8119 94.3724 15.605L94.3786 15.6112Z" fill="white"/>
<path d="M120.5 27.2977C120.5 28.5955 119.999 29.7993 119.087 30.6959C118.13 31.6363 116.83 32.1379 115.435 32.1003C112.947 32.0375 110.928 29.8745 110.928 27.2727V13.7681H106.17V27.0093C106.17 32.7335 109.634 36.4387 114.985 36.4387C117.086 36.4387 118.999 35.7679 120.506 34.5265V35.9937H125.12V13.7681H120.506V27.3041L120.5 27.2977Z" fill="white"/>
<path d="M151.085 26.3136V25.6866C151.085 17.5675 145.183 13.1851 139.631 13.1851C133.404 13.1851 128.334 18.4013 128.334 24.8088C128.334 31.2163 133.423 36.4387 139.925 36.4387C145.177 36.4387 149.066 33.7241 150.603 28.9969H145.539C144.389 31.0783 142.563 32.0815 140.075 31.9561C137.312 31.9561 134.18 30.1881 133.479 26.3136H151.085ZM133.754 21.9812C134.817 19.1976 137.506 17.6364 139.781 17.5173C142.37 17.5173 144.789 19.3543 145.796 21.9812H133.754Z" fill="white"/>
<path d="M177.317 13.7681L173.253 27.8369L169.19 13.7681H164.594L160.531 27.8369L156.467 13.7681H151.49L158.311 35.9937H162.756L166.82 21.6739L170.884 35.9937H175.473L182.294 13.7681H177.317Z" fill="white"/>
<path d="M194.041 13.1851C190.953 13.1851 188.096 14.3763 185.976 16.5455C183.813 18.7712 182.663 21.7618 182.738 24.9594C182.738 28.0877 183.932 31.0031 186.095 33.1661C188.202 35.2727 191.028 36.4387 194.041 36.4387H194.073C197.061 36.4263 199.887 35.2225 202.018 33.0407C204.182 30.8339 205.388 27.8057 205.338 24.74C205.232 18.1506 200.374 13.1851 194.041 13.1851ZM194.041 31.9561C190.371 31.9561 187.502 28.8151 187.502 24.8088C187.502 20.8026 190.434 17.5173 194.041 17.5173C197.649 17.5173 200.58 20.79 200.58 24.8088C200.58 28.8275 197.649 31.9561 194.041 31.9561Z" fill="white"/>
<path d="M211.479 15.6112C209.573 17.3416 208.559 19.862 208.559 22.9026V35.9936H213.317V22.7522C213.317 21.1472 213.779 19.9059 214.687 19.0532C215.717 18.0877 217.337 17.6551 219.375 17.7993L220.045 17.8495V13.3855L219.481 13.3291C216.305 13.0031 213.455 13.8119 211.473 15.605L211.479 15.6112Z" fill="white"/>
<path d="M234.948 22.2508L243.726 13.7682H236.804L228.026 22.301V4.37634H223.268V35.8496H228.026V28.7398L231.402 25.4796L238.48 35.8496H244.238L234.948 22.2508Z" fill="white"/>
<path d="M20.2806 0.0065918H10.0461C4.53812 0.0065918 0.0742188 4.48307 0.0742188 10.0065C0.0742188 15.53 4.53812 20.0065 10.0461 20.0065H18.8989C19.5866 20.0065 20.1492 20.5707 20.1492 21.2603V29.9375C20.1492 35.4985 24.6444 40.0001 30.1836 40.0001C35.7292 40.0001 40.218 35.4923 40.218 29.9375V20.0065C40.218 8.95951 31.2902 0.0065918 20.2742 0.0065918H20.2806Z" fill="white"/>
<path d="M50.9952 19.9999C56.5026 19.9999 60.9672 15.5228 60.9672 9.99995C60.9672 4.47714 56.5026 0 50.9952 0C45.488 0 41.0234 4.47714 41.0234 9.99995C41.0234 15.5228 45.488 19.9999 50.9952 19.9999Z" fill="white"/>
</svg>
