<svg width="281" height="40" viewBox="0 0 281 40" fill="none"
  xmlns="http://www.w3.org/2000/svg">
  <path fill-rule="evenodd" clip-rule="evenodd" d="M139.533 23.5812C139.533 30.9568 134.595 36.878 128.336 36.878C125.304 36.878 122.419 35.4238 121.246 33.346V36.3586H114.351V0H121.246V13.8682C122.419 11.7906 125.304 10.3362 128.336 10.3362C134.595 10.3362 139.533 16.2056 139.533 23.5812ZM110.305 31.5282C108.545 34.9042 104.535 36.878 99.5476 36.878C92.5064 36.878 86.9319 31.0606 86.9319 23.4772C86.9319 16.0497 92.4085 10.3362 99.4009 10.3362C105.904 10.3362 110.99 15.6862 110.99 22.4904C110.99 23.3734 110.941 24.3602 110.794 25.3472H93.5333C94.1689 28.8272 96.4181 30.6452 99.6942 30.6452C101.846 30.6452 104.095 29.6064 104.926 28.048L110.305 31.5282ZM67.8745 22.3866L62.9848 36.3586H57.655L49 10.8557H56.3835L60.3931 24.8278L65.1851 10.8557H70.564L75.4047 24.8278L79.3656 10.8557H86.798L78.1431 36.3586H72.7155L67.8745 22.3866ZM104.095 20.6724H93.631C94.2666 17.9196 96.1737 16.2575 99.0586 16.2575C101.601 16.2575 103.802 18.1274 104.095 20.6724ZM126.82 29.918C124.424 29.918 122.272 28.5676 121.246 26.7496V20.5166C122.272 18.6468 124.424 17.2444 126.82 17.2444C130.194 17.2444 132.785 19.9453 132.785 23.5812C132.785 27.217 130.194 29.918 126.82 29.918ZM160.987 28.5676C160.987 33.45 157.075 36.878 151.5 36.878C147.393 36.878 143.628 35.8392 140.743 33.6578L142.797 28.5676C145.046 30.3334 147.98 31.2684 150.914 31.2684C153.065 31.2684 154.434 30.3854 154.434 29.035C154.415 27.5888 152.473 27.1368 150.093 26.5828C146.318 25.704 141.439 24.5684 141.379 18.8026C141.33 14.024 145.339 10.3362 151.011 10.3362C154.385 10.3362 157.76 11.2192 160.155 13.2449L158.2 18.5429C156.341 17.0366 153.31 15.8939 150.718 15.8939C148.958 15.8939 147.784 16.7769 147.784 17.9196C147.803 19.36 149.799 19.9288 152.234 20.6224C156.032 21.7048 160.897 23.0914 160.987 28.5676ZM175.79 36.7742C177.061 36.7742 178.43 36.5144 179.311 36.047L178.968 29.5544C178.43 29.7622 177.501 29.918 176.817 29.918C174.812 29.918 173.101 28.4116 173.101 26.0224V17.8157H179.017V10.8557H173.101V4.15528H166.206V10.8557H161.756V17.8157H166.206V26.386C166.206 32.9824 170.167 36.7742 175.79 36.7742ZM198.907 33.346C197.732 35.4238 194.847 36.878 191.816 36.878C185.557 36.878 180.618 30.9568 180.618 23.5812C180.618 16.2056 185.557 10.3362 191.816 10.3362C194.847 10.3362 197.732 11.7906 198.907 13.8682V10.8557H205.801V36.3586H198.907V33.346ZM193.331 29.918C189.957 29.918 187.366 27.217 187.366 23.5812C187.366 19.9453 189.957 17.2444 193.331 17.2444C195.728 17.2444 197.878 18.6468 198.907 20.5166V26.7496C197.878 28.5676 195.728 29.918 193.331 29.918ZM233.072 29.5544C231.263 33.9694 226.912 36.878 221.777 36.878C214.59 36.878 209.162 31.2164 209.162 23.6332C209.162 16.0497 214.59 10.3362 221.777 10.3362C226.471 10.3362 230.432 12.8294 232.34 16.6211L226.52 20.153C225.641 18.439 223.88 17.3483 221.777 17.3483C218.354 17.3483 215.91 20.0492 215.91 23.6332C215.91 27.165 218.354 29.866 221.777 29.866C224.125 29.866 226.032 28.6714 226.961 26.6456L233.072 29.5544ZM250.957 36.3586H259.806L249.05 23.1656L259.025 10.8557H250.565L242.253 21.3996V0H235.358V36.3586H242.253V24.9316L250.957 36.3586ZM280.38 28.5676C280.38 33.45 276.469 36.878 270.894 36.878C266.786 36.878 263.022 35.8392 260.138 33.6578L262.19 28.5676C264.44 30.3334 267.373 31.2684 270.307 31.2684C272.459 31.2684 273.828 30.3854 273.828 29.035C273.809 27.5888 271.868 27.1368 269.486 26.5828C265.711 25.704 260.833 24.5684 260.772 18.8026C260.723 14.024 264.734 10.3362 270.405 10.3362C273.779 10.3362 277.153 11.2192 279.55 13.2449L277.593 18.5429C275.735 17.0366 272.704 15.8939 270.111 15.8939C268.353 15.8939 267.178 16.7769 267.178 17.9196C267.196 19.36 269.192 19.9288 271.627 20.6224C275.426 21.7048 280.291 23.0914 280.38 28.5676Z" fill="white"/>
  <path fill-rule="evenodd" clip-rule="evenodd" d="M20.7109 0H33.8907V8V32V40H26.3594H20.7109V32H26.3594V8H20.7109V0Z" fill="#2885F6"/>
  <path fill-rule="evenodd" clip-rule="evenodd" d="M13.1798 0H7.53129H0V8V32V40H7.53129H13.1798V32H7.53129V8H13.1798V0Z" fill="#2885F6"/>
</svg>
